<mxfile host="app.diagrams.net" modified="2022-10-10T17:30:18.244Z" agent="5.0 (Windows NT 10.0; Win64; x64) AppleWebKit/537.36 (KHTML, like Gecko) Chrome/105.0.0.0 Safari/537.36 OPR/91.0.4516.36 (Edition Yx GX)" etag="uP21300zeE_bb2exlpdp" version="20.4.0" type="github">
  <diagram id="JtSHPyrtu1UMF8-l7VgB" name="Страница 1">
    <mxGraphModel dx="1248" dy="735" grid="1" gridSize="10" guides="1" tooltips="1" connect="1" arrows="1" fold="1" page="1" pageScale="1" pageWidth="827" pageHeight="1169" math="0" shadow="0">
      <root>
        <mxCell id="0" />
        <mxCell id="1" parent="0" />
        <mxCell id="yKAVHZmEkNLangEVGs3E-10" style="edgeStyle=orthogonalEdgeStyle;rounded=0;orthogonalLoop=1;jettySize=auto;html=1;entryX=1;entryY=1;entryDx=0;entryDy=0;" edge="1" parent="1" source="yKAVHZmEkNLangEVGs3E-1" target="yKAVHZmEkNLangEVGs3E-5">
          <mxGeometry relative="1" as="geometry" />
        </mxCell>
        <mxCell id="yKAVHZmEkNLangEVGs3E-11" style="edgeStyle=orthogonalEdgeStyle;rounded=0;orthogonalLoop=1;jettySize=auto;html=1;exitX=0.75;exitY=0.1;exitDx=0;exitDy=0;exitPerimeter=0;entryX=0;entryY=1;entryDx=0;entryDy=0;" edge="1" parent="1" source="yKAVHZmEkNLangEVGs3E-1" target="yKAVHZmEkNLangEVGs3E-9">
          <mxGeometry relative="1" as="geometry" />
        </mxCell>
        <mxCell id="yKAVHZmEkNLangEVGs3E-12" style="edgeStyle=orthogonalEdgeStyle;rounded=0;orthogonalLoop=1;jettySize=auto;html=1;exitX=0.25;exitY=0.1;exitDx=0;exitDy=0;exitPerimeter=0;entryX=1;entryY=0.5;entryDx=0;entryDy=0;" edge="1" parent="1" source="yKAVHZmEkNLangEVGs3E-1" target="yKAVHZmEkNLangEVGs3E-6">
          <mxGeometry relative="1" as="geometry" />
        </mxCell>
        <mxCell id="yKAVHZmEkNLangEVGs3E-23" style="edgeStyle=orthogonalEdgeStyle;rounded=0;orthogonalLoop=1;jettySize=auto;html=1;exitX=1;exitY=0.3333333333333333;exitDx=0;exitDy=0;exitPerimeter=0;entryX=0;entryY=1;entryDx=0;entryDy=0;" edge="1" parent="1" source="yKAVHZmEkNLangEVGs3E-1" target="yKAVHZmEkNLangEVGs3E-22">
          <mxGeometry relative="1" as="geometry" />
        </mxCell>
        <mxCell id="yKAVHZmEkNLangEVGs3E-1" value="Пользователь" style="shape=umlActor;verticalLabelPosition=bottom;verticalAlign=top;html=1;" vertex="1" parent="1">
          <mxGeometry x="390" y="380" width="30" height="60" as="geometry" />
        </mxCell>
        <mxCell id="yKAVHZmEkNLangEVGs3E-5" value="Вход" style="ellipse;whiteSpace=wrap;html=1;" vertex="1" parent="1">
          <mxGeometry x="250" y="240" width="140" height="70" as="geometry" />
        </mxCell>
        <mxCell id="yKAVHZmEkNLangEVGs3E-6" value="Регистрация" style="ellipse;whiteSpace=wrap;html=1;" vertex="1" parent="1">
          <mxGeometry x="250" y="140" width="140" height="70" as="geometry" />
        </mxCell>
        <mxCell id="yKAVHZmEkNLangEVGs3E-7" value="Проверка номера телефона" style="ellipse;whiteSpace=wrap;html=1;" vertex="1" parent="1">
          <mxGeometry x="30" y="330" width="140" height="70" as="geometry" />
        </mxCell>
        <mxCell id="yKAVHZmEkNLangEVGs3E-8" value="Настройка профиля" style="ellipse;whiteSpace=wrap;html=1;" vertex="1" parent="1">
          <mxGeometry x="180" y="470" width="140" height="70" as="geometry" />
        </mxCell>
        <mxCell id="yKAVHZmEkNLangEVGs3E-9" value="Просмотр расписания эскурсий" style="ellipse;whiteSpace=wrap;html=1;" vertex="1" parent="1">
          <mxGeometry x="470" y="240" width="140" height="70" as="geometry" />
        </mxCell>
        <mxCell id="yKAVHZmEkNLangEVGs3E-13" value="&amp;lt;&amp;lt;include&amp;gt;&amp;gt;" style="html=1;verticalAlign=bottom;endArrow=open;dashed=1;endSize=8;rounded=0;exitX=0;exitY=0.5;exitDx=0;exitDy=0;entryX=0.5;entryY=0;entryDx=0;entryDy=0;" edge="1" parent="1" source="yKAVHZmEkNLangEVGs3E-6" target="yKAVHZmEkNLangEVGs3E-7">
          <mxGeometry x="-0.2787" relative="1" as="geometry">
            <mxPoint x="220" y="180" as="sourcePoint" />
            <mxPoint x="100" y="270" as="targetPoint" />
            <Array as="points">
              <mxPoint x="100" y="175" />
            </Array>
            <mxPoint as="offset" />
          </mxGeometry>
        </mxCell>
        <mxCell id="yKAVHZmEkNLangEVGs3E-14" value="&amp;lt;&amp;lt;include&amp;gt;&amp;gt;" style="html=1;verticalAlign=bottom;endArrow=open;dashed=1;endSize=8;rounded=0;exitX=0;exitY=0.5;exitDx=0;exitDy=0;entryX=1;entryY=0;entryDx=0;entryDy=0;" edge="1" parent="1" source="yKAVHZmEkNLangEVGs3E-5" target="yKAVHZmEkNLangEVGs3E-7">
          <mxGeometry x="-0.2787" relative="1" as="geometry">
            <mxPoint x="250" y="280" as="sourcePoint" />
            <mxPoint x="100" y="435" as="targetPoint" />
            <Array as="points">
              <mxPoint x="149" y="275" />
            </Array>
            <mxPoint as="offset" />
          </mxGeometry>
        </mxCell>
        <mxCell id="yKAVHZmEkNLangEVGs3E-17" style="edgeStyle=orthogonalEdgeStyle;rounded=0;orthogonalLoop=1;jettySize=auto;html=1;exitX=0.5;exitY=0;exitDx=0;exitDy=0;exitPerimeter=0;shape=flexArrow;entryX=0.5;entryY=0.5;entryDx=0;entryDy=0;entryPerimeter=0;" edge="1" parent="1" source="yKAVHZmEkNLangEVGs3E-15" target="yKAVHZmEkNLangEVGs3E-1">
          <mxGeometry relative="1" as="geometry">
            <mxPoint x="405" y="430" as="targetPoint" />
          </mxGeometry>
        </mxCell>
        <mxCell id="yKAVHZmEkNLangEVGs3E-19" style="edgeStyle=orthogonalEdgeStyle;rounded=0;orthogonalLoop=1;jettySize=auto;html=1;exitX=0;exitY=0.3333333333333333;exitDx=0;exitDy=0;exitPerimeter=0;entryX=0.9;entryY=0.879;entryDx=0;entryDy=0;entryPerimeter=0;" edge="1" parent="1" source="yKAVHZmEkNLangEVGs3E-15" target="yKAVHZmEkNLangEVGs3E-8">
          <mxGeometry relative="1" as="geometry" />
        </mxCell>
        <mxCell id="yKAVHZmEkNLangEVGs3E-21" style="edgeStyle=orthogonalEdgeStyle;rounded=0;orthogonalLoop=1;jettySize=auto;html=1;exitX=1;exitY=0.3333333333333333;exitDx=0;exitDy=0;exitPerimeter=0;entryX=0;entryY=1;entryDx=0;entryDy=0;" edge="1" parent="1" source="yKAVHZmEkNLangEVGs3E-15" target="yKAVHZmEkNLangEVGs3E-20">
          <mxGeometry relative="1" as="geometry" />
        </mxCell>
        <mxCell id="yKAVHZmEkNLangEVGs3E-15" value="Авторизованный пользователь" style="shape=umlActor;verticalLabelPosition=bottom;verticalAlign=top;html=1;" vertex="1" parent="1">
          <mxGeometry x="390" y="540" width="30" height="60" as="geometry" />
        </mxCell>
        <mxCell id="yKAVHZmEkNLangEVGs3E-20" value="Запись на экскурсию" style="ellipse;whiteSpace=wrap;html=1;" vertex="1" parent="1">
          <mxGeometry x="520" y="440" width="140" height="70" as="geometry" />
        </mxCell>
        <mxCell id="yKAVHZmEkNLangEVGs3E-22" value="Просмотр истории музея" style="ellipse;whiteSpace=wrap;html=1;" vertex="1" parent="1">
          <mxGeometry x="580" y="320" width="140" height="70" as="geometry" />
        </mxCell>
        <mxCell id="yKAVHZmEkNLangEVGs3E-25" style="edgeStyle=orthogonalEdgeStyle;rounded=0;orthogonalLoop=1;jettySize=auto;html=1;exitX=0.5;exitY=0;exitDx=0;exitDy=0;exitPerimeter=0;entryX=0.5;entryY=0.5;entryDx=0;entryDy=0;entryPerimeter=0;shape=flexArrow;" edge="1" parent="1" source="yKAVHZmEkNLangEVGs3E-24" target="yKAVHZmEkNLangEVGs3E-15">
          <mxGeometry relative="1" as="geometry" />
        </mxCell>
        <mxCell id="yKAVHZmEkNLangEVGs3E-28" style="edgeStyle=orthogonalEdgeStyle;rounded=0;orthogonalLoop=1;jettySize=auto;html=1;exitX=0;exitY=0.3333333333333333;exitDx=0;exitDy=0;exitPerimeter=0;entryX=1;entryY=1;entryDx=0;entryDy=0;" edge="1" parent="1" source="yKAVHZmEkNLangEVGs3E-24" target="yKAVHZmEkNLangEVGs3E-27">
          <mxGeometry relative="1" as="geometry" />
        </mxCell>
        <mxCell id="yKAVHZmEkNLangEVGs3E-24" value="Работник музея" style="shape=umlActor;verticalLabelPosition=bottom;verticalAlign=top;html=1;" vertex="1" parent="1">
          <mxGeometry x="390" y="670" width="30" height="60" as="geometry" />
        </mxCell>
        <mxCell id="yKAVHZmEkNLangEVGs3E-27" value="Просмотр списков работников музея" style="ellipse;whiteSpace=wrap;html=1;" vertex="1" parent="1">
          <mxGeometry x="160" y="620" width="140" height="70" as="geometry" />
        </mxCell>
        <mxCell id="yKAVHZmEkNLangEVGs3E-31" style="edgeStyle=orthogonalEdgeStyle;rounded=0;orthogonalLoop=1;jettySize=auto;html=1;exitX=1;exitY=0.5;exitDx=0;exitDy=0;entryX=0;entryY=1;entryDx=0;entryDy=0;" edge="1" parent="1" source="yKAVHZmEkNLangEVGs3E-29" target="yKAVHZmEkNLangEVGs3E-30">
          <mxGeometry relative="1" as="geometry" />
        </mxCell>
        <mxCell id="yKAVHZmEkNLangEVGs3E-32" style="edgeStyle=orthogonalEdgeStyle;rounded=0;orthogonalLoop=1;jettySize=auto;html=1;exitX=0;exitY=1;exitDx=0;exitDy=0;entryX=1;entryY=0.3333333333333333;entryDx=0;entryDy=0;entryPerimeter=0;" edge="1" parent="1" source="yKAVHZmEkNLangEVGs3E-29" target="yKAVHZmEkNLangEVGs3E-24">
          <mxGeometry relative="1" as="geometry" />
        </mxCell>
        <mxCell id="yKAVHZmEkNLangEVGs3E-29" value="Работа с экскурсиями" style="ellipse;whiteSpace=wrap;html=1;" vertex="1" parent="1">
          <mxGeometry x="460" y="610" width="140" height="70" as="geometry" />
        </mxCell>
        <mxCell id="yKAVHZmEkNLangEVGs3E-30" value="Создание экскурсий" style="ellipse;whiteSpace=wrap;html=1;" vertex="1" parent="1">
          <mxGeometry x="620" y="560" width="140" height="70" as="geometry" />
        </mxCell>
      </root>
    </mxGraphModel>
  </diagram>
</mxfile>
